<svg width="142" height="164" viewBox="0 0 142 164" fill="none" xmlns="http://www.w3.org/2000/svg">
<path d="M86.99 98.05H49.89C46.6205 98.05 43.97 100.7 43.97 103.97V157.38C43.97 160.65 46.6205 163.3 49.89 163.3H86.99C90.2595 163.3 92.91 160.65 92.91 157.38V103.97C92.91 100.7 90.2595 98.05 86.99 98.05Z" fill="url(#paint0_linear_0_1)"/>
<path d="M136.32 54.37H102.65C99.8886 54.37 97.65 56.6086 97.65 59.37V93.04C97.65 95.8014 99.8886 98.04 102.65 98.04H136.32C139.081 98.04 141.32 95.8014 141.32 93.04V59.37C141.32 56.6086 139.081 54.37 136.32 54.37Z" fill="url(#paint1_linear_0_1)"/>
<path d="M92.91 43.72V6.62C92.91 5.04991 92.2864 3.54414 91.1761 2.43393C90.0659 1.32371 88.5601 0.699997 86.99 0.699997H49.89C48.3199 0.699997 46.8142 1.32371 45.704 2.43393C44.5938 3.54414 43.97 5.04991 43.97 6.62V40.51C43.9691 41.8379 43.5219 43.127 42.7001 44.17L36.47 52.11C35.9148 52.8147 35.207 53.3842 34.3998 53.7756C33.5926 54.1671 32.7072 54.3703 31.8101 54.37H6.17004C4.59996 54.37 3.0941 54.9937 1.98389 56.1039C0.873671 57.2141 0.25 58.7199 0.25 60.29V92.13C0.25 93.7001 0.873671 95.2059 1.98389 96.3161C3.0941 97.4263 4.59996 98.05 6.17004 98.05H38C38.7774 98.05 39.5473 97.8969 40.2655 97.5994C40.9837 97.3019 41.6363 96.8658 42.186 96.3161C42.7358 95.7663 43.1719 95.1137 43.4694 94.3955C43.7669 93.6772 43.92 92.9074 43.92 92.13V84V64.41C43.9173 63.0832 44.3611 61.794 45.1801 60.75L52.1801 51.9C52.7322 51.1944 53.438 50.6242 54.2438 50.2325C55.0496 49.8409 55.9342 49.6382 56.8301 49.64H86.98C87.7582 49.6413 88.5291 49.4892 89.2485 49.1922C89.9679 48.8953 90.6218 48.4595 91.1726 47.9096C91.7234 47.3598 92.1602 46.7067 92.4584 45.9878C92.7565 45.2689 92.91 44.4983 92.91 43.72Z" fill="url(#paint2_linear_0_1)"/>
<path d="M119.12 25.17H100.65C98.9932 25.17 97.65 26.5131 97.65 28.17V46.64C97.65 48.2969 98.9932 49.64 100.65 49.64H119.12C120.777 49.64 122.12 48.2969 122.12 46.64V28.17C122.12 26.5131 120.777 25.17 119.12 25.17Z" fill="url(#paint3_linear_0_1)"/>
<path d="M138.07 0.699997H125.12C123.463 0.699997 122.12 2.04314 122.12 3.7V16.65C122.12 18.3068 123.463 19.65 125.12 19.65H138.07C139.727 19.65 141.07 18.3068 141.07 16.65V3.7C141.07 2.04314 139.727 0.699997 138.07 0.699997Z" fill="url(#paint4_linear_0_1)"/>
<defs>
<linearGradient id="paint0_linear_0_1" x1="146.86" y1="213.01" x2="-9.33002" y2="49.02" gradientUnits="userSpaceOnUse">
<stop stop-color="#3FA2FF"/>
<stop offset="1" stop-color="#30FA8A"/>
</linearGradient>
<linearGradient id="paint1_linear_0_1" x1="201.91" y1="162.76" x2="43.64" y2="-3.43003" gradientUnits="userSpaceOnUse">
<stop stop-color="#3FA2FF"/>
<stop offset="1" stop-color="#30FA8A"/>
</linearGradient>
<linearGradient id="paint2_linear_0_1" x1="176" y1="185.26" x2="19.8101" y2="21.2699" gradientUnits="userSpaceOnUse">
<stop stop-color="#3FA2FF"/>
<stop offset="1" stop-color="#30FA8A"/>
</linearGradient>
<linearGradient id="paint3_linear_0_1" x1="216.69" y1="149.55" x2="58.25" y2="-16.81" gradientUnits="userSpaceOnUse">
<stop stop-color="#3FA2FF"/>
<stop offset="1" stop-color="#30FA8A"/>
</linearGradient>
<linearGradient id="paint4_linear_0_1" x1="242.23" y1="126.35" x2="83.0501" y2="-40.7901" gradientUnits="userSpaceOnUse">
<stop stop-color="#3FA2FF"/>
<stop offset="1" stop-color="#30FA8A"/>
</linearGradient>
</defs>
</svg>
